<?xml version="1.0" standalone="no"?>
<!DOCTYPE svg PUBLIC "-//W3C//DTD SVG 20010904//EN"
 "http://www.w3.org/TR/2001/REC-SVG-20010904/DTD/svg10.dtd">
<svg version="1.0" xmlns="http://www.w3.org/2000/svg"
 width="512.000000pt" height="512.000000pt" viewBox="0 0 512.000000 512.000000"
 preserveAspectRatio="xMidYMid meet">
<metadata>
Created by potrace 1.11, written by Peter Selinger 2001-2013
</metadata>
<g transform="translate(0.000000,512.000000) scale(0.100000,-0.100000)"
fill="#000000" stroke="none">
<path d="M2118 4615 c-2 -1 -34 -5 -73 -8 -422 -37 -820 -211 -966 -424 -85
-123 -93 -239 -27 -366 57 -108 179 -190 283 -191 l51 -1 -81 -170 c-45 -93
-88 -184 -96 -202 l-13 -31 -23 24 c-17 19 -29 24 -46 19 -29 -9 -57 -42 -64
-77 -3 -15 -9 -28 -14 -28 -5 0 -9 -5 -9 -11 0 -10 -11 -35 -67 -159 -14 -30
-41 -91 -60 -134 -18 -44 -40 -94 -48 -110 -29 -65 -225 -550 -230 -571 -1 -5
-5 -17 -8 -25 -17 -40 -100 -288 -131 -395 -36 -121 -59 -223 -71 -305 -3 -25
-8 -52 -10 -60 -18 -71 -26 -405 -12 -520 21 -176 69 -249 185 -279 23 -7 42
-16 42 -21 0 -5 14 -17 32 -26 71 -37 203 5 296 94 27 26 87 99 132 162 87
122 165 209 216 241 l31 19 47 -25 c25 -13 74 -32 109 -40 34 -9 78 -23 97
-32 45 -21 127 -27 178 -14 57 16 109 73 172 188 132 245 173 312 189 311 38
-3 58 4 85 27 16 14 32 25 36 25 3 0 16 -20 28 -45 25 -51 39 -55 70 -22 24
25 77 130 88 172 9 37 17 38 61 5 67 -49 132 -65 201 -48 4 1 24 -6 46 -15
108 -47 197 7 304 184 49 80 83 155 128 272 54 144 94 216 131 240 7 4 20 15
29 24 16 16 18 15 38 -8 45 -52 86 -72 145 -73 38 0 66 5 83 16 24 16 28 16
72 -7 44 -23 49 -23 91 -8 56 19 97 60 144 148 21 39 64 117 95 175 78 145 79
146 138 214 24 26 86 80 138 119 147 110 290 259 335 350 60 120 50 198 -43
352 -37 62 -121 182 -157 224 -63 74 -243 241 -304 281 -13 8 -37 25 -54 38
-129 95 -337 207 -522 280 -86 34 -167 63 -185 67 -3 1 -29 9 -58 18 -150 46
-511 127 -637 141 -27 4 -68 9 -90 12 -41 6 -441 14 -447 9z m1035 -2179 c-10
-13 -20 -22 -22 -20 -4 4 29 44 36 44 2 0 -4 -11 -14 -24z m-576 -730 c40 -35
25 -40 -17 -5 -19 15 -30 29 -23 29 7 0 25 -11 40 -24z m-1007 -100 c0 -3 -4
-8 -10 -11 -5 -3 -10 -1 -10 4 0 6 5 11 10 11 6 0 10 -2 10 -4z"/>
</g>
</svg>
